<svg width="620" height="320" viewBox="0 0 620 320" fill="none" xmlns="http://www.w3.org/2000/svg">
<g clip-path="url(#clip0)">
<rect width="620" height="320" fill="#0B5FFF"/>
<path fill-rule="evenodd" clip-rule="evenodd" d="M82.1846 -256.872L82.9155 -256.382C90.468 -251.731 95.5843 -243.654 95.8279 -234.108C95.8279 -219.911 84.3773 -208.406 70.2467 -208.406C66.105 -208.406 62.4505 -209.385 59.0397 -211.099L55.6289 -213.057L43.691 -219.911C19.5716 -233.863 -20.1402 -233.863 -44.5033 -219.911L-159.984 -152.842C-184.347 -138.89 -204.081 -104.377 -204.081 -76.4725V-63.2547C-204.568 -50.0368 -215.775 -39.5115 -229.662 -39.5115C-243.306 -39.5115 -254.513 -49.7921 -255 -63.0099V-92.8725C-255 -128.12 -230.15 -171.201 -199.94 -188.824L-55.4666 -272.782C-25.0128 -290.406 24.6878 -290.406 54.8979 -272.782L82.1846 -256.872ZM79.5047 -81.1228L21.7642 -114.412C9.5827 -121.511 -10.1514 -121.511 -22.3329 -114.412L-80.0733 -81.1228C-92.2548 -74.0243 -102.244 -56.89 -102.244 -42.6931V99.5212C-102.244 113.718 -90.7931 125.223 -76.6625 125.223C-62.5319 125.223 -51.0813 113.718 -51.0813 99.5212V-25.8036C-51.0813 -32.9021 -46.2087 -41.4692 -40.1179 -44.8961L-11.3695 -61.5408C-5.27876 -64.9676 4.71008 -64.9676 10.8008 -61.5408L39.7929 -44.8961C45.8836 -41.4692 50.7563 -32.6573 50.7563 -25.8036V-5.97681C50.7563 8.22015 62.2069 19.7246 76.0938 19.7246C90.2244 19.7246 101.431 8.22012 101.675 -5.73206V-42.6931C101.431 -56.6452 91.4426 -74.0243 79.5047 -81.1228ZM-25.9873 -8.91431C-25.9873 -23.1112 -14.5367 -34.6157 -0.406113 -34.6157C13.7245 -34.6157 25.1751 -23.356 24.9315 -9.15906V241.98C24.6878 256.177 13.4808 267.682 -0.64975 267.682C-14.5367 267.682 -25.9873 256.177 -25.9873 241.98V-8.91431ZM-76.9061 238.308C-62.7756 238.308 -51.3249 226.804 -51.3249 212.607V169.282C-51.3249 155.085 -62.7756 143.58 -76.9061 143.58C-91.0367 143.58 -102.487 155.085 -102.487 169.282V212.607C-102.244 226.804 -91.0367 238.308 -76.9061 238.308ZM177.931 168.303C177.931 182.5 166.481 193.759 152.35 193.759C138.22 193.759 127.013 182.255 127.013 168.303V135.258C127.013 121.061 138.463 109.557 152.35 109.557C166.481 109.557 177.931 121.061 177.931 135.258V168.303ZM75.8502 238.309C89.9807 238.309 101.431 226.804 101.431 212.607H101.188V64.7632C101.431 50.5663 89.9807 39.0618 75.8502 39.0618C61.9632 39.0618 50.5126 50.5663 50.5126 64.7632V212.607C50.5126 226.804 61.7196 238.309 75.8502 238.309ZM254.188 -92.8723C254.188 -128.12 229.337 -171.2 199.127 -188.824L142.361 -221.869C138.951 -223.582 135.052 -224.561 131.154 -224.561C117.024 -224.561 105.573 -213.057 105.573 -198.86C105.573 -189.558 110.446 -181.481 117.755 -177.075L159.172 -153.087C183.535 -139.135 203.269 -104.377 203.269 -76.2276V34.166C203.269 48.3629 214.72 59.8673 228.607 59.8673C242.737 59.8673 254.188 48.3629 254.188 34.166V-92.8723ZM-229.662 107.844C-215.532 107.599 -204.081 96.3391 -204.081 82.1422V7.241C-204.081 -6.95596 -215.532 -18.4604 -229.662 -18.4604C-243.549 -18.4604 -255 -6.95596 -255 7.241V82.1422C-255 96.0944 -243.549 107.599 -229.662 107.844ZM133.834 -138.156L43.691 -190.293C19.3279 -204.245 -20.1402 -204.245 -44.5033 -190.293L-64.9682 -178.299C-72.0335 -173.648 -76.6625 -165.815 -76.6625 -156.758C-76.6625 -142.561 -65.2119 -131.057 -51.0813 -131.057C-46.9396 -131.057 -42.7979 -132.036 -39.387 -133.994L-22.0893 -144.03C-9.90773 -151.129 9.82632 -151.129 22.0078 -144.03L105.329 -95.8094C117.511 -88.711 127.256 -71.5767 127.256 -57.3797V16.5423V64.2734C127.256 78.4704 138.707 89.9748 152.837 89.9748C162.826 89.9748 171.353 84.345 175.495 76.0226C177.201 72.5958 178.419 68.6794 178.419 64.5182V-61.2962C177.931 -89.4453 157.954 -123.959 133.834 -138.156ZM-123.927 -144.275C-120.516 -146.233 -116.374 -147.212 -112.233 -147.212C-98.102 -147.212 -86.6513 -135.708 -86.4077 -121.511C-86.4077 -112.699 -90.793 -104.866 -97.6147 -100.215C-98.5892 -99.7259 -105.411 -95.8095 -105.411 -95.8095C-117.592 -88.711 -127.581 -71.332 -127.581 -57.3798V168.303C-127.581 182.5 -138.788 194.004 -152.919 194.004C-167.049 194.004 -178.5 182.5 -178.5 168.303V-61.2962C-178.5 -89.4453 -158.766 -124.203 -134.403 -138.156L-123.927 -144.275Z" fill="#3279FF"/>
<path fill-rule="evenodd" clip-rule="evenodd" d="M702.185 96.1282L702.915 96.6178C710.468 101.269 715.584 109.346 715.828 118.892C715.828 133.089 704.377 144.594 690.247 144.594C686.105 144.594 682.451 143.615 679.04 141.901L675.629 139.943L663.691 133.089C639.572 119.137 599.86 119.137 575.497 133.089L460.016 200.158C435.653 214.11 415.919 248.623 415.919 276.527V289.745C415.432 302.963 404.225 313.488 390.338 313.488C376.694 313.488 365.487 303.208 365 289.99V260.128C365 224.88 389.85 181.799 420.06 164.176L564.533 80.2179C594.987 62.594 644.688 62.594 674.898 80.2179L702.185 96.1282ZM699.505 271.877L641.764 238.588C629.583 231.489 609.849 231.489 597.667 238.588L539.927 271.877C527.745 278.976 517.756 296.11 517.756 310.307V452.521C517.756 466.718 529.207 478.223 543.337 478.223C557.468 478.223 568.919 466.718 568.919 452.521V327.196C568.919 320.098 573.791 311.531 579.882 308.104L608.63 291.459C614.721 288.032 624.71 288.032 630.801 291.459L659.793 308.104C665.884 311.531 670.756 320.343 670.756 327.196V347.023C670.756 361.22 682.207 372.725 696.094 372.725C710.224 372.725 721.431 361.22 721.675 347.268V310.307C721.431 296.355 711.443 278.976 699.505 271.877ZM594.013 344.086C594.013 329.889 605.463 318.384 619.594 318.384C633.724 318.384 645.175 329.644 644.931 343.841V594.98C644.688 609.177 633.481 620.682 619.35 620.682C605.463 620.682 594.013 609.177 594.013 594.98V344.086ZM543.094 591.308C557.224 591.308 568.675 579.804 568.675 565.607V522.282C568.675 508.085 557.224 496.58 543.094 496.58C528.963 496.58 517.513 508.085 517.513 522.282V565.607C517.756 579.804 528.963 591.308 543.094 591.308ZM797.931 521.303C797.931 535.5 786.481 546.759 772.35 546.759C758.22 546.759 747.013 535.255 747.013 521.303V488.258C747.013 474.061 758.463 462.557 772.35 462.557C786.481 462.557 797.931 474.061 797.931 488.258V521.303ZM695.85 591.309C709.981 591.309 721.431 579.804 721.431 565.607H721.188V417.763C721.431 403.566 709.981 392.062 695.85 392.062C681.963 392.062 670.513 403.566 670.513 417.763V565.607C670.513 579.804 681.72 591.309 695.85 591.309ZM874.188 260.128C874.188 224.88 849.337 181.8 819.127 164.176L762.361 131.131C758.951 129.418 755.052 128.439 751.154 128.439C737.024 128.439 725.573 139.943 725.573 154.14C725.573 163.442 730.446 171.519 737.755 175.925L779.172 199.913C803.535 213.865 823.269 248.623 823.269 276.772V387.166C823.269 401.363 834.72 412.867 848.607 412.867C862.737 412.867 874.188 401.363 874.188 387.166V260.128ZM390.338 460.844C404.468 460.599 415.919 449.339 415.919 435.142V360.241C415.919 346.044 404.468 334.54 390.338 334.54C376.451 334.54 365 346.044 365 360.241V435.142C365 449.094 376.451 460.599 390.338 460.844ZM753.834 214.844L663.691 162.707C639.328 148.755 599.86 148.755 575.497 162.707L555.032 174.701C547.966 179.352 543.337 187.185 543.337 196.242C543.337 210.439 554.788 221.943 568.919 221.943C573.06 221.943 577.202 220.964 580.613 219.006L597.911 208.97C610.092 201.871 629.826 201.871 642.008 208.97L725.329 257.191C737.511 264.289 747.256 281.423 747.256 295.62V369.542V417.273C747.256 431.47 758.707 442.975 772.837 442.975C782.826 442.975 791.353 437.345 795.495 429.023C797.201 425.596 798.419 421.679 798.419 417.518V291.704C797.931 263.555 777.954 229.041 753.834 214.844ZM496.073 208.725C499.484 206.767 503.626 205.788 507.767 205.788C521.898 205.788 533.349 217.292 533.592 231.489C533.592 240.301 529.207 248.134 522.385 252.785C521.411 253.274 514.589 257.191 514.589 257.191C502.408 264.289 492.419 281.668 492.419 295.62V521.303C492.419 535.5 481.212 547.004 467.081 547.004C452.951 547.004 441.5 535.5 441.5 521.303V291.704C441.5 263.555 461.234 228.797 485.597 214.844L496.073 208.725Z" fill="#3279FF"/>
<path fill-rule="evenodd" clip-rule="evenodd" d="M345.346 52.6036L345.664 52.816C348.942 54.8346 351.162 58.3404 351.268 62.4837C351.268 68.6456 346.298 73.6388 340.165 73.6388C338.367 73.6388 336.781 73.2138 335.301 72.4701L333.821 71.6202L328.639 68.6456C318.171 62.59 300.935 62.59 290.361 68.6456L240.239 97.7549C229.665 103.81 221.1 118.79 221.1 130.901V136.638C220.889 142.375 216.024 146.943 209.997 146.943C204.076 146.943 199.211 142.481 199 136.744V123.783C199 108.485 209.786 89.787 222.898 82.1378L285.602 45.6981C298.82 38.0489 320.391 38.0489 333.503 45.6981L345.346 52.6036ZM344.183 128.883L319.122 114.435C313.835 111.354 305.27 111.354 299.983 114.435L274.922 128.883C269.635 131.964 265.3 139.401 265.3 145.562V207.287C265.3 213.449 270.27 218.442 276.403 218.442C282.536 218.442 287.506 213.449 287.506 207.287V152.893C287.506 149.812 289.621 146.094 292.264 144.606L304.742 137.382C307.385 135.895 311.721 135.895 314.364 137.382L326.947 144.606C329.591 146.094 331.706 149.918 331.706 152.893V161.498C331.706 167.66 336.676 172.653 342.703 172.653C348.836 172.653 353.7 167.66 353.806 161.604V145.562C353.7 139.507 349.365 131.964 344.183 128.883ZM298.397 160.223C298.397 154.061 303.367 149.068 309.5 149.068C315.633 149.068 320.603 153.955 320.497 160.117V269.118C320.391 275.279 315.527 280.273 309.394 280.273C303.367 280.273 298.397 275.279 298.397 269.118V160.223ZM276.297 267.524C282.43 267.524 287.4 262.531 287.4 256.369V237.565C287.4 231.403 282.43 226.41 276.297 226.41C270.164 226.41 265.194 231.403 265.194 237.565V256.369C265.3 262.531 270.164 267.524 276.297 267.524ZM386.903 237.14C386.903 243.302 381.933 248.189 375.8 248.189C369.667 248.189 364.803 243.195 364.803 237.14V222.798C364.803 216.636 369.773 211.643 375.8 211.643C381.933 211.643 386.903 216.636 386.903 222.798V237.14ZM342.597 267.524C348.73 267.524 353.7 262.531 353.7 256.369H353.594V192.201C353.7 186.039 348.73 181.046 342.597 181.046C336.57 181.046 331.6 186.039 331.6 192.201V256.369C331.6 262.531 336.464 267.524 342.597 267.524ZM420 123.783C420 108.485 409.214 89.7871 396.102 82.1379L371.465 67.7957C369.984 67.0521 368.292 66.6271 366.6 66.6271C360.467 66.6271 355.498 71.6203 355.498 77.7822C355.498 81.8192 357.612 85.3251 360.785 87.2374L378.761 97.6487C389.335 103.704 397.9 118.79 397.9 131.008V178.921C397.9 185.083 402.87 190.076 408.897 190.076C415.03 190.076 420 185.083 420 178.921V123.783ZM209.997 210.899C216.13 210.793 221.1 205.906 221.1 199.744V167.235C221.1 161.073 216.13 156.08 209.997 156.08C203.97 156.08 199 161.073 199 167.235V199.744C199 205.8 203.97 210.793 209.997 210.899ZM367.764 104.129L328.639 81.5006C318.065 75.445 300.935 75.445 290.361 81.5006L281.478 86.7063C278.412 88.7248 276.403 92.1244 276.403 96.0552C276.403 102.217 281.373 107.21 287.506 107.21C289.303 107.21 291.101 106.785 292.581 105.935L300.089 101.58C305.376 98.4987 313.941 98.4987 319.228 101.58L355.392 122.509C360.679 125.589 364.909 133.026 364.909 139.188V171.272V191.988C364.909 198.15 369.878 203.144 376.011 203.144C380.347 203.144 384.048 200.7 385.845 197.088C386.586 195.601 387.114 193.901 387.114 192.095V137.488C386.903 125.271 378.232 110.291 367.764 104.129ZM255.889 101.473C257.369 100.623 259.167 100.199 260.965 100.199C267.098 100.199 272.067 105.192 272.173 111.354C272.173 115.178 270.27 118.578 267.309 120.596C266.886 120.809 263.925 122.509 263.925 122.509C258.638 125.589 254.303 133.132 254.303 139.188V237.14C254.303 243.302 249.439 248.295 243.306 248.295C237.173 248.295 232.203 243.302 232.203 237.14V137.488C232.203 125.271 240.768 110.185 251.342 104.129L255.889 101.473Z" fill="white"/>
</g>
<defs>
<clipPath id="clip0">
<rect width="620" height="320" fill="white"/>
</clipPath>
</defs>
</svg>
